PathFileType	4	(X/Y/Z)	C:\Documents and Settings\rtobon\Desktop\NewMocap\New\NoT\ActorC_TPose.trc
DataRate	CameraRate	NumFrames	NumMarkers	Units	OrigDataRate	OrigDataStartFrame	OrigNumFrames
120.00	120.00	       4	49	mm	120.00	243	       277
Frame#	Time	Root			LtFtHip			LtBkHip			RtFtHip			RtBkHip			Spine1			Spine2			Spine3			SpineOffsetLow			SpineOffsetHigh			LtCtChest			RtCtChest			LtChest			RtChest			LtShoulder			LtBicep			LtElbow			LtForeArm			LtWrist			LtPinky			LtThumb			LtMiddFing			RtShoulder			RtBicep			RtElbow			RtForeArm			RtWrist			RtPinky			RtThumb			RtMiddFing			LtThigh			LtKnee			LtCalf			LtAnkle			LtHeel			LtBall			LtToe			RtThigh			RtKnee			RtCalf			RtAnkle			RtHeel			RtBall			RtToe			TopHead			LfFtHead			LtBkHead			RtFtHead			RtBkHead			
		X1	Y1	Z1	X2	Y2	Z2	X3	Y3	Z3	X4	Y4	Z4	X5	Y5	Z5	X6	Y6	Z6	X7	Y7	Z7	X8	Y8	Z8	X9	Y9	Z9	X10	Y10	Z10	X11	Y11	Z11	X12	Y12	Z12	X13	Y13	Z13	X14	Y14	Z14	X15	Y15	Z15	X16	Y16	Z16	X17	Y17	Z17	X18	Y18	Z18	X19	Y19	Z19	X20	Y20	Z20	X21	Y21	Z21	X22	Y22	Z22	X23	Y23	Z23	X24	Y24	Z24	X25	Y25	Z25	X26	Y26	Z26	X27	Y27	Z27	X28	Y28	Z28	X29	Y29	Z29	X30	Y30	Z30	X31	Y31	Z31	X32	Y32	Z32	X33	Y33	Z33	X34	Y34	Z34	X35	Y35	Z35	X36	Y36	Z36	X37	Y37	Z37	X38	Y38	Z38	X39	Y39	Z39	X40	Y40	Z40	X41	Y41	Z41	X42	Y42	Z42	X43	Y43	Z43	X44	Y44	Z44	X45	Y45	Z45	X46	Y46	Z46	X47	Y47	Z47	X48	Y48	Z48	X49	Y49	Z49	

243	2.017	30.65354	977.74664	-151.55522	161.19655	936.22449	56.94050	162.76857	971.17310	-117.06953	-111.12682	931.24103	62.50566	-107.88010	951.22485	-127.86131	30.66802	1137.35864	-146.58630	33.05691	1280.02832	-150.83316	41.01214	1407.06226	-117.54395	-53.59554	1044.26733	-136.90810	131.21788	1353.32092	-135.86575	53.58036	1214.77136	113.81534	-4.99618	1285.44287	99.13706	127.06129	1324.91431	80.69274	-74.09104	1331.39294	67.08405	165.38625	1426.41248	-18.48332	359.82648	1380.88660	-11.54473	477.63205	1362.06836	-81.53061	587.45764	1368.90869	6.24100	707.73169	1375.32166	-12.97521	770.65869	1340.85620	-57.42372	735.77533	1353.20154	54.16618	762.14819	1381.30151	-1.07031	-112.31431	1427.03979	-41.92630	-297.71179	1379.27576	1.28119	-407.49106	1373.22217	-109.14406	-532.84344	1386.62244	-1.59747	-656.53674	1413.08252	-44.96727	-718.21606	1373.66101	-89.48675	-679.75195	1375.27551	28.03924	-718.44012	1409.78015	-31.28405	169.93759	681.50562	61.08088	191.94429	487.89349	-17.14379	202.90120	375.58594	-140.71893	203.13972	167.66470	-84.34216	151.77823	46.08688	-172.99527	212.34203	64.26369	4.61419	154.63747	57.68740	99.28140	-129.41811	671.99567	51.40656	-160.73924	511.99127	-25.28104	-189.87401	376.40735	-130.64906	-182.51961	165.62535	-98.83527	-123.00806	47.59255	-170.77957	-205.95834	65.32327	5.52892	-150.59061	65.02660	100.69534	30.19424	1691.85291	-35.95536	88.46700	1626.22815	60.40493	121.96207	1547.82031	-68.15691	-48.87505	1624.82983	38.57758	-36.10883	1545.71985	-99.18732	
244	2.025	30.65354	977.74664	-151.55522	161.14767	936.20935	56.63741	162.72827	971.32452	-117.13432	-111.06586	931.21716	62.71169	-107.93797	951.02234	-127.67321	30.66802	1137.35864	-146.58630	33.03593	1279.91052	-150.84138	40.94605	1407.17029	-117.49540	-53.71772	1044.35925	-137.27585	131.19354	1353.27332	-135.65422	53.58036	1214.77136	113.81534	-4.90518	1285.47852	99.17592	126.94546	1324.83618	80.70290	-73.92906	1331.30127	67.05680	165.46204	1426.31873	-18.34545	359.90729	1380.86145	-11.37356	477.62903	1362.12378	-81.57556	587.54749	1368.86938	6.69443	707.63708	1375.36584	-12.90615	770.65118	1340.68579	-57.22299	735.76233	1353.17163	54.13693	762.16980	1381.29016	-0.97849	-112.31965	1426.93213	-41.82279	-297.71310	1379.14905	1.54137	-407.29343	1373.17603	-109.05672	-532.80469	1386.64746	-1.65073	-656.56152	1413.06812	-44.83262	-718.27350	1373.72107	-89.42807	-679.61707	1375.27185	27.97052	-718.43256	1409.78174	-31.23572	169.94914	681.63342	61.17932	191.91296	487.99503	-17.00603	202.83708	375.56262	-140.68127	203.15836	167.52950	-84.18376	151.89554	46.19519	-173.09726	211.95695	64.28984	4.35701	154.63763	57.66665	99.36517	-129.51613	671.83527	51.42513	-160.73924	511.99127	-25.28104	-189.87401	376.40735	-130.64906	-182.35622	165.68468	-98.70863	-123.00806	47.59255	-170.77957	-206.01031	65.30453	5.57289	-150.49771	65.00893	100.73482	30.25602	1691.84558	-35.90123	88.24693	1626.30859	60.60583	121.97736	1547.81250	-67.91539	-48.95274	1624.82947	38.58687	-35.96144	1545.47485	-99.23853	
245	2.033	30.86195	977.83942	-151.25282	161.11479	936.17242	56.92431	162.79318	971.11462	-117.03690	-111.06726	931.26184	62.62928	-107.82349	950.99036	-127.59737	30.66802	1137.35864	-146.58630	33.07630	1279.83447	-150.44518	41.05172	1407.05225	-117.42111	-53.59799	1044.28027	-137.18622	131.16235	1353.39819	-135.58356	53.54576	1214.70398	113.81233	-4.99618	1285.44287	99.13706	127.03235	1324.96814	80.84322	-74.03580	1331.35559	67.24442	165.46951	1426.34717	-18.28324	359.85751	1380.88318	-11.31939	477.55710	1361.95764	-81.31806	587.54370	1368.77258	6.89013	707.58551	1375.22058	-12.75835	770.69904	1340.64612	-56.82458	735.82623	1353.10266	54.24118	762.16858	1381.36646	-0.84372	-112.33082	1427.00037	-41.90663	-297.81750	1379.21631	1.55028	-407.30865	1373.21448	-109.11776	-532.76880	1386.64429	-1.71513	-656.54187	1413.16870	-44.76614	-718.24286	1373.73975	-89.45354	-679.48608	1375.37439	27.68429	-718.18140	1409.49683	-31.05129	169.92732	681.56525	61.14673	191.91296	487.99503	-17.00603	202.83708	375.56262	-140.68127	203.13733	167.57745	-84.04783	151.89554	46.19519	-173.09726	212.36925	64.24702	5.09264	154.68004	57.77235	99.28607	-129.47806	671.93567	51.40816	-160.69347	511.99036	-25.44346	-189.78070	376.49780	-130.76180	-182.44940	165.58801	-98.80270	-123.00806	47.59255	-170.77957	-205.95834	65.32327	5.52892	-150.49771	65.00893	100.73482	30.33467	1692.06604	-35.90644	88.35470	1626.12085	60.73754	122.05381	1547.86487	-67.78803	-49.04163	1624.74194	38.74640	-36.07035	1545.72559	-99.01659	
246	2.042	30.86195	977.83942	-151.25282	161.03232	936.19495	56.95907	162.75571	971.17584	-116.90832	-111.14906	931.28229	62.67547	-107.74862	951.07440	-127.65639	30.66802	1137.35864	-146.58630	33.07630	1279.83447	-150.44518	41.29289	1407.00439	-117.15203	-53.66755	1044.41040	-137.16988	131.09727	1353.28979	-135.36406	53.54576	1214.70398	113.81233	-5.03199	1285.34460	99.25684	127.09190	1324.97034	81.32925	-74.11979	1331.43506	67.29888	165.54318	1426.35657	-18.27980	359.89459	1380.87256	-11.29624	477.54193	1362.05408	-81.10970	587.41296	1368.69812	7.09351	707.58606	1375.09998	-12.65909	770.72150	1340.71814	-56.49650	735.80664	1353.03870	54.31829	762.03687	1381.34973	-0.76991	-112.22459	1426.87952	-41.58873	-297.59103	1379.28430	1.70507	-407.30865	1373.21448	-109.11776	-532.80469	1386.64746	-1.65073	-656.52008	1413.09546	-44.70698	-718.21606	1373.66101	-89.48675	-679.61871	1375.49023	27.94312	-718.22961	1409.53809	-31.17412	169.92732	681.56525	61.14673	192.01791	487.92737	-17.09591	202.90135	375.66974	-140.63652	203.20168	167.52625	-84.10491	151.90030	46.04170	-172.92029	212.32112	64.36122	4.69744	154.65486	57.68079	99.37837	-129.47208	671.93683	51.40404	-160.76125	511.84256	-25.78388	-189.87401	376.40735	-130.64906	-182.43442	165.65784	-98.82003	-122.86906	47.58252	-170.72221	-205.95834	65.32327	5.52892	-150.56465	65.00368	100.77838	30.25602	1691.84558	-35.90123	88.16439	1625.95972	60.22780	122.09641	1547.87085	-67.64126	-49.11069	1624.71680	38.71639	-35.96328	1545.71082	-99.02328	
